<svg width="17" height="16" viewBox="0 0 17 16" fill="none" xmlns="http://www.w3.org/2000/svg">
<path fill-rule="evenodd" clip-rule="evenodd" d="M1.31242 0.489563C0.944229 0.489563 0.645752 0.78804 0.645752 1.15623C0.645752 1.52442 0.944229 1.8229 1.31242 1.8229H3.37341L3.91307 4.51917C3.916 4.53797 3.91972 4.55652 3.9242 4.57477L5.01296 10.0145L5.01307 10.0151C5.10325 10.4685 5.34996 10.8757 5.71003 11.1655C6.06842 11.454 6.5164 11.608 6.97627 11.6008H13.301C13.7609 11.608 14.2088 11.454 14.5672 11.1655C14.9275 10.8756 15.1742 10.4681 15.2643 10.0145L15.2643 10.0145L15.2653 10.0095L16.3082 4.54042C16.3455 4.34526 16.2937 4.14366 16.167 3.99058C16.0404 3.83749 15.8521 3.74887 15.6534 3.74887H5.11867L4.57357 1.02539C4.51121 0.71382 4.23762 0.489563 3.91987 0.489563H1.31242ZM6.32056 9.75383L5.38554 5.08221H14.8476L13.9561 9.75683C13.9266 9.90266 13.8471 10.0336 13.7311 10.1269C13.6147 10.2207 13.4689 10.2705 13.3195 10.2676L13.3195 10.2675H13.3067H6.97058V10.2674L6.95781 10.2676C6.80832 10.2705 6.66259 10.2207 6.54612 10.1269C6.42966 10.0332 6.34988 9.90143 6.32075 9.75478L6.32056 9.75383ZM5.21031 14.1936C5.21031 13.4656 5.80043 12.8755 6.52837 12.8755C7.25632 12.8755 7.84644 13.4656 7.84644 14.1936C7.84644 14.9215 7.25632 15.5117 6.52837 15.5117C5.80043 15.5117 5.21031 14.9215 5.21031 14.1936ZM12.3803 14.1936C12.3803 13.4656 12.9704 12.8755 13.6984 12.8755C14.4263 12.8755 15.0164 13.4656 15.0164 14.1936C15.0164 14.9215 14.4263 15.5117 13.6984 15.5117C12.9704 15.5117 12.3803 14.9215 12.3803 14.1936Z" fill="#2D3440"/>
</svg>
