<svg xmlns="http://www.w3.org/2000/svg" xmlns:xlink="http://www.w3.org/1999/xlink"><symbol id="icon-cart" viewBox="0 0 17 16"><g fill="none">
<path fill-rule="evenodd" clip-rule="evenodd" d="M1.31254 0.489586C0.944351 0.489586 0.645874 0.788063 0.645874 1.15625C0.645874 1.52444 0.944351 1.82292 1.31254 1.82292H3.37353L3.91319 4.5192C3.91612 4.538 3.91985 4.55654 3.92432 4.57479L5.01308 10.0146L5.0132 10.0151C5.10338 10.4685 5.35008 10.8757 5.71016 11.1656C6.06854 11.4541 6.51652 11.608 6.97639 11.6009H13.3011C13.761 11.608 14.209 11.4541 14.5673 11.1656C14.9276 10.8756 15.1743 10.4681 15.2644 10.0146L15.2644 10.0146L15.2654 10.0096L16.3084 4.54045C16.3456 4.34528 16.2938 4.14368 16.1672 3.9906C16.0405 3.83751 15.8522 3.7489 15.6535 3.7489H5.11879L4.57369 1.02541C4.51133 0.713843 4.23774 0.489586 3.91999 0.489586H1.31254ZM6.32068 9.75385L5.38566 5.08223H14.8477L13.9562 9.75686C13.9268 9.90268 13.8472 10.0336 13.7313 10.1269C13.6148 10.2207 13.4691 10.2705 13.3196 10.2676L13.3196 10.2675H13.3068H6.9707V10.2674L6.95793 10.2676C6.80844 10.2705 6.66271 10.2207 6.54624 10.1269C6.42978 10.0332 6.35 9.90146 6.32087 9.75481L6.32068 9.75385ZM5.21043 14.1936C5.21043 13.4657 5.80055 12.8755 6.5285 12.8755C7.25644 12.8755 7.84656 13.4657 7.84656 14.1936C7.84656 14.9216 7.25644 15.5117 6.5285 15.5117C5.80055 15.5117 5.21043 14.9216 5.21043 14.1936ZM12.3804 14.1936C12.3804 13.4657 12.9705 12.8755 13.6985 12.8755C14.4264 12.8755 15.0166 13.4657 15.0166 14.1936C15.0166 14.9216 14.4264 15.5117 13.6985 15.5117C12.9705 15.5117 12.3804 14.9216 12.3804 14.1936Z" fill="#2D3440"/>
</g></symbol><symbol id="icon-cross" viewBox="0 0 10 10"><g fill="none">
<path fill-rule="evenodd" clip-rule="evenodd" d="M9.80303 1.13807C10.0634 0.877722 10.0634 0.455612 9.80303 0.195262C9.54268 -0.0650874 9.12057 -0.0650874 8.86022 0.195262L4.99914 4.05633L1.13807 0.195262C0.877722 -0.0650874 0.455612 -0.0650874 0.195262 0.195262C-0.0650874 0.455612 -0.0650874 0.877722 0.195262 1.13807L4.05633 4.99914L0.195262 8.86022C-0.0650874 9.12057 -0.0650874 9.54268 0.195262 9.80303C0.455612 10.0634 0.877722 10.0634 1.13807 9.80303L4.99914 5.94195L8.86022 9.80303C9.12057 10.0634 9.54268 10.0634 9.80303 9.80303C10.0634 9.54268 10.0634 9.12057 9.80303 8.86022L5.94195 4.99914L9.80303 1.13807Z" fill="#2D3440"/>
</g></symbol><symbol id="icon-login" viewBox="0 0 16 16"><g fill="none">
<path fill-rule="evenodd" clip-rule="evenodd" d="M9.20837 0.874999C9.20837 0.506809 9.50685 0.208332 9.87504 0.208332H12.875C13.4497 0.208332 14.0008 0.436605 14.4071 0.842934C14.8134 1.24926 15.0417 1.80036 15.0417 2.375V12.875C15.0417 13.4496 14.8134 14.0007 14.4071 14.4071C14.0008 14.8134 13.4497 15.0417 12.875 15.0417H9.87504C9.50685 15.0417 9.20837 14.7432 9.20837 14.375C9.20837 14.0068 9.50685 13.7083 9.87504 13.7083H12.875C13.0961 13.7083 13.308 13.6205 13.4643 13.4643C13.6206 13.308 13.7084 13.096 13.7084 12.875V2.375C13.7084 2.15399 13.6206 1.94202 13.4643 1.78574C13.308 1.62946 13.0961 1.54167 12.875 1.54167H9.87504C9.50685 1.54167 9.20837 1.24319 9.20837 0.874999ZM5.65359 3.40359C5.91394 3.14324 6.33605 3.14324 6.5964 3.40359L10.3418 7.14903C10.4652 7.27002 10.5417 7.43857 10.5417 7.625C10.5417 7.81143 10.4652 7.97999 10.3418 8.10098L6.5964 11.8464C6.33605 12.1068 5.91394 12.1068 5.65359 11.8464C5.39324 11.5861 5.39324 11.1639 5.65359 10.9036L8.26552 8.29167H0.875041C0.506851 8.29167 0.208374 7.99319 0.208374 7.625C0.208374 7.25681 0.506851 6.95833 0.875041 6.95833H8.26552L5.65359 4.3464C5.39324 4.08605 5.39324 3.66394 5.65359 3.40359Z" fill="#2D3440"/>
</g></symbol><symbol id="icon-search" viewBox="0 0 16 16"><g fill="none">
<path fill-rule="evenodd" clip-rule="evenodd" d="M1.91286 7.24625C1.91286 4.30073 4.30068 1.91292 7.2462 1.91292C10.1917 1.91292 12.5795 4.30073 12.5795 7.24625C12.5795 8.68547 12.0095 9.99154 11.0828 10.951C11.0582 10.9695 11.0346 10.99 11.0123 11.0124C10.9899 11.0347 10.9694 11.0583 10.9509 11.0829C9.99146 12.0095 8.6854 12.5796 7.2462 12.5796C4.30068 12.5796 1.91286 10.1918 1.91286 7.24625ZM11.4653 12.4082C10.3161 13.3487 8.84703 13.9129 7.2462 13.9129C3.5643 13.9129 0.579529 10.9281 0.579529 7.24625C0.579529 3.56435 3.5643 0.579582 7.2462 0.579582C10.9281 0.579582 13.9129 3.56435 13.9129 7.24625C13.9129 8.84711 13.3486 10.3162 12.4081 11.4654L15.2176 14.2749C15.4779 14.5352 15.4779 14.9573 15.2176 15.2177C14.9572 15.478 14.5351 15.478 14.2748 15.2177L11.4653 12.4082Z" fill="#2D3440"/>
</g></symbol><symbol id="logo-desktop" viewBox="0 0 137 56"><g fill="none">
<path d="M52.7904 37.7569C52.1339 37.6811 51.4697 37.7965 50.8761 38.0894C50.8761 38.0894 48.2048 40.3456 34.9912 37.7479C25.2769 35.8332 20.2283 36.031 20.2283 36.031C20.2283 36.031 21.8577 24.7949 21.4125 21.6488C21.3921 21.4168 21.2832 21.2017 21.1088 21.0492C20.9343 20.8966 20.7081 20.8183 20.4776 20.8309C19.507 20.8309 18.9194 21.2084 18.9194 21.7297C19.0026 23.8537 18.9282 25.9811 18.6968 28.0938C18.2934 29.2101 17.5362 30.1606 16.5428 30.7978C15.5493 31.4349 14.3753 31.7231 13.203 31.6175C8.97354 31.3208 8.08313 28.2467 7.70916 26.1523C7.33519 24.0578 7.1215 18.2061 8.2345 15.8151C8.2345 15.8151 14.6098 16.0398 18.6166 12.5881C22.6235 9.13636 22.3742 6.15207 20.4776 4.87565C18.581 3.59924 14.1379 3.82396 10.7276 6.97005C8.76961 8.69668 7.22335 10.8476 6.20438 13.2622C6.20438 13.2622 1.19139 12.1836 2.34002 6.89814C3.55987 1.37899 11.0304 2.02619 11.0304 2.02619C12.5886 2.33181 12.6598 2.47563 13.1763 1.95428C13.6927 1.43292 14.0667 0.0845968 11.618 0.00369719C9.16943 -0.0772024 1.82358 1.14528 0.416738 6.07117C-1.08805 11.3117 1.69002 15.06 5.42082 15.6443C5.42082 15.6443 3.38179 24.723 5.90164 29.2174C6.60015 30.6377 7.70101 31.8164 9.06442 32.6039C10.4278 33.3913 11.9923 33.7519 13.5591 33.64C15.0283 33.64 17.6283 32.813 18.3673 31.6175C18.3673 31.6175 18.0201 34.8355 17.7262 36.004C17.7262 36.004 11.5468 35.9231 9.61463 36.9029C6.32903 38.6557 7.01465 42.7636 8.27902 44.2198C9.34751 45.4603 12.5619 46.1345 14.8858 45.0288C16.2159 44.3827 17.3648 43.4109 18.2279 42.2021C19.091 40.9932 19.6409 39.5856 19.8276 38.1074C23.5873 37.9121 27.3537 38.3248 30.9844 39.3299C36.4782 40.9838 44.1268 42.5299 46.424 42.5299C48.7213 42.5299 53.5473 41.8647 53.8411 39.9321C54.0014 38.6557 53.5295 37.9906 52.7904 37.7569ZM14.1201 7.71613C14.1201 7.71613 17.0406 5.46892 18.4386 6.87118C18.7524 7.21293 18.9334 7.65767 18.9481 8.12348C18.9628 8.58928 18.8103 9.04477 18.5187 9.40603C17.931 10.1791 16.3817 12.624 9.02697 13.8375C9.02697 13.8375 11.342 9.73862 14.1201 7.71613ZM14.3605 42.6917C14.3605 42.6917 10.327 44.912 9.90847 41.9007C9.74677 41.2728 9.80359 40.6079 10.0694 40.0172C10.3352 39.4265 10.7939 38.9459 11.3687 38.6557C12.0722 38.3052 13.0338 37.8647 17.2276 38.0175C17.1806 38.9779 16.8929 39.9106 16.3915 40.7281C15.89 41.5456 15.1912 42.2212 14.3605 42.6917Z" fill="#2D3440"/>
<path d="M65.5143 21.3342C65.5143 23.3657 65.5143 25.3882 65.5143 27.4197C65.5143 27.4197 65.5143 27.4916 65.5143 27.5275C65.4439 28.3367 65.1812 29.1168 64.7486 29.8017C64.4751 30.2991 64.1198 30.746 63.6979 31.1231C63.226 31.5366 62.9143 30.6107 62.7363 30.2242C61.4986 27.6084 62.0952 24.1028 62.576 21.3612C62.7986 20.0488 60.163 20.3904 59.9582 21.5589C59.4779 23.8958 59.3132 26.2876 59.4685 28.6691C59.2351 28.6877 59.0082 28.7557 58.8026 28.8688C58.597 28.9818 58.4173 29.1374 58.2753 29.3253C57.8212 30.3051 56.4945 33.5591 54.8651 32.2557C53.6897 31.3568 53.5651 28.8938 53.4404 27.5186C53.2986 25.6122 53.5471 23.6967 54.1706 21.8915C54.1171 22.0443 55.1856 19.3477 55.6575 20.3544C55.7851 20.8342 55.8025 21.3371 55.7084 21.8246C55.6143 22.3122 55.4111 22.7717 55.1144 23.168C53.7165 24.2286 55.889 24.6691 56.7349 24.0219C58.3377 22.8084 59.4062 18.8893 56.6726 18.4218C53.5829 17.9005 51.8288 21.0466 51.1788 23.5455C50.8342 24.9806 50.6845 26.4562 50.7336 27.932C50.3062 28.6871 48.8637 31.1141 48.0179 31.5276C47.0206 32.0489 47.0384 31.3208 47.074 30.8534C47.1096 30.386 47.5548 26.2242 47.7953 23.4196C48.006 22.3063 47.8496 21.1539 47.35 20.1387C46.9672 19.3567 43.7884 17.6039 40.9925 20.8938C39.4175 22.6294 38.4536 24.8411 38.2501 27.186C38.0631 27.5635 37.8583 27.968 37.6179 28.4084C36.2823 30.8804 34.5994 31.9231 34.0029 30.2062C33.4028 28.4178 33.1754 26.5235 33.3351 24.6421C35.4098 21.3998 36.9327 17.8299 37.8405 14.0802C39.1761 8.09366 38.9268 5.11835 38.2056 4.61498C37.4843 4.1116 34.4214 2.87114 32.5782 10.233C31.2108 15.4712 30.7321 20.9054 31.1625 26.3051C30.8775 26.9163 30.5214 27.6534 30.0673 28.4893C28.7317 30.9613 27.0577 32.004 26.4522 30.2871C25.8642 28.4962 25.6489 26.6019 25.82 24.723C27.8948 21.4807 29.4177 17.9108 30.3255 14.1611C31.7056 8.09366 31.4296 5.11835 30.7084 4.61498C29.9871 4.1116 26.9241 2.87114 25.0899 10.233C23.2557 17.5949 22.8906 25.6219 24.6447 31.0152C24.6447 31.0152 25.6063 34.0534 27.405 33.8287C28.8919 33.64 30.6638 32.1658 31.7056 29.4152C31.8234 29.9558 31.969 30.4899 32.1419 31.0152C32.1419 31.0152 33.1035 34.0534 34.9022 33.8287C36.122 33.6759 37.5734 32.6422 38.5885 30.7545C39.2206 32.3995 40.583 33.7568 42.3371 33.4512C44.7144 33.0197 45.2042 31.7163 45.2042 31.7163C45.2042 31.7163 45.1596 33.8557 46.6822 33.8557C48.0357 33.8557 49.1131 33.0557 50.1815 31.0152C50.5466 30.3231 50.7603 29.9186 50.8761 29.6849C51.1877 31.6175 51.9802 33.3343 53.5473 34.0265C56.2185 35.195 58.5514 32.9748 59.9226 30.7815C60.0983 31.3101 60.385 31.7941 60.763 32.2005C61.1411 32.607 61.6015 32.9263 62.113 33.1366C62.6961 33.3216 63.3182 33.3414 63.9117 33.194C64.5052 33.0466 65.0472 32.7376 65.4787 32.3006V35.4647C64.9905 35.4385 64.5069 35.5708 64.0986 35.8422C62.7354 36.9714 61.6781 38.4311 61.0257 40.0848C60.3732 41.7386 60.1469 43.5324 60.3678 45.2985C60.4054 45.7763 60.5596 46.2373 60.8166 46.6403C61.0736 47.0433 61.4255 47.3759 61.8408 47.6082C62.2561 47.8405 62.7219 47.9654 63.1967 47.9718C63.6714 47.9781 64.1404 47.8657 64.5616 47.6446C67.3219 46.4311 67.7403 42.2513 67.9719 39.6984C68.5328 33.5591 68.0965 27.168 68.0965 21.0106C68.0965 19.878 65.5143 20.4084 65.5143 21.3342ZM26.933 11.2667C27.5474 8.88468 28.1173 7.93186 28.7138 7.93186C29.3104 7.93186 29.5419 8.57007 29.1234 10.6285C28.347 14.5766 27.1251 18.4219 25.4817 22.0893C25.4817 22.0893 26.3187 13.6578 26.933 11.2667ZM34.4303 11.2667C35.0446 8.88468 35.6145 7.93186 36.1665 7.93186C36.7186 7.93186 37.0035 8.57007 36.585 10.6285C36.1665 12.687 34.8042 18.3769 32.9433 22.0893C32.9433 22.0893 33.8337 13.6578 34.4303 11.2667ZM45.8809 22.4758C45.8096 22.9972 45.4713 26.332 44.9905 28.1298C44.5097 29.9276 44.1802 30.5658 42.7377 31.186C41.2953 31.8062 40.5652 29.9096 40.5652 29.9096C39.5412 27.0332 40.9124 24.5163 42.0521 22.7904C43.1919 21.0646 44.3405 20.9118 44.9994 20.9927C45.1538 21.0315 45.299 21.1008 45.4269 21.1964C45.5548 21.292 45.6627 21.4121 45.7446 21.5498C45.8265 21.6876 45.8806 21.8402 45.904 21.9991C45.9274 22.158 45.9195 22.32 45.8809 22.4758ZM65.4431 38.6557C65.4968 41.0723 65.0162 43.4706 64.0363 45.676C63.413 45.8019 63.1459 45.5682 62.9322 44.5614C62.7852 43.5933 62.7852 42.6082 62.9322 41.64C63.2234 39.8616 64.0946 38.2324 65.4075 37.0108C65.452 37.5771 65.452 38.1254 65.4431 38.6557Z" fill="#2D3440"/>
<path d="M82.1827 18.7904C81.0246 18.2746 79.9791 17.5325 79.1065 16.6069C78.2339 15.6812 77.5515 14.5903 77.0985 13.3971C75.9588 9.96334 79.6985 7.42848 82.6814 7.58129C85.6642 7.73411 87.2581 10.8353 87.1334 13.6128C87.08 14.5926 86.4656 16.8039 85.2635 15.6533C84.4686 14.7424 83.982 13.5994 83.8745 12.3903C83.6964 11.3027 81.1143 11.9499 81.2923 13.0915C81.8088 16.3814 85.317 20.0039 88.3265 16.5612C88.9423 15.7817 89.3753 14.8717 89.5932 13.8992C89.8111 12.9268 89.8081 11.9172 89.5845 10.9461C89.361 9.97503 88.9226 9.0676 88.3023 8.29184C87.6819 7.51608 86.8957 6.89211 86.0026 6.46668C83.9878 5.67463 81.7597 5.6312 79.7161 6.34414C77.6725 7.05707 75.9463 8.47997 74.8458 10.3588C72.415 14.7184 77.2944 18.9792 80.7492 20.5342C86.2964 23.5275 86.5012 33.1635 79.1286 33.2265C77.6141 33.1914 76.1463 32.6895 74.9224 31.7881C73.6985 30.8867 72.7769 29.629 72.2814 28.1837C71.7739 26.6736 72.0321 21.3972 74.0622 20.9927C75.6739 20.678 75.2376 19.1949 73.6616 19.4735C70.3581 20.1207 69.1383 24.4264 69.4588 27.4377C69.9753 32.2377 74.4273 34.9254 78.9239 34.8894C80.9132 34.9471 82.8598 34.3 84.426 33.0604C85.9922 31.8208 87.0792 30.0669 87.4985 28.1028C87.8293 26.1682 87.4788 24.1777 86.5079 22.4767C85.5369 20.7757 84.0067 19.4715 82.1827 18.7904Z" fill="#2D3440"/>
<path d="M98.7265 33.0737C96.1888 31.6714 97.6402 26.2691 98.0231 24.1927C98.2724 22.8533 99.4032 20.7859 97.5868 20.3275C95.4587 19.8061 92.9299 21.8466 91.1046 23.7972C91.1031 21.5468 91.2668 19.2994 91.5943 17.0735C94.41 15.6553 96.6644 13.3129 97.9874 10.4308C99.145 8.09366 99.7148 3.23968 95.797 4.65992C92.2354 5.91836 91.0156 10.0532 89.9026 13.3701C89.482 14.6531 89.1576 15.9662 88.932 17.2982C88.5769 17.4488 88.2143 17.5808 87.8457 17.6937C86.3677 18.1612 86.5635 18.9612 88.0594 18.4938L88.7806 18.26C88.0683 23.3028 88.5491 28.5882 89.0033 33.5411C89.0033 34.0265 91.6745 33.5411 91.5765 32.84C91.3806 30.6287 91.2115 28.4174 91.1402 26.2242C91.3552 26.1607 91.5491 26.0395 91.7012 25.8736C92.5205 24.8353 93.4391 23.8808 94.4436 23.0241C94.7108 22.7814 94.9868 22.5567 95.2628 22.341L95.6724 22.0354C96.269 21.5589 96.3847 21.55 96.0107 22.0354C95.8712 22.8925 95.6869 23.7417 95.4587 24.5792C94.969 27.2759 93.5621 32.5703 96.6518 34.2692C97.3196 34.6108 99.7237 33.604 98.7265 33.0737ZM92.9477 11.4016C93.2238 10.6015 93.5888 9.81053 93.9272 9.03749C94.3457 8.06669 95.4676 4.74981 96.2779 6.34083C96.9279 7.60826 95.9039 9.68468 95.4498 10.8982C94.7348 12.7954 93.4994 14.4479 91.8882 15.6623C92.148 14.22 92.5019 12.7967 92.9477 11.4016Z" fill="#2D3440"/>
<path d="M108.298 26.7725C108.298 23.8151 107.969 20.0219 104.47 19.7072C100.632 19.3567 99.1272 23.4107 99.0737 26.4399C99.0682 26.5471 99.095 26.6535 99.1507 26.745C99.2063 26.8364 99.2882 26.9087 99.3854 26.9523C99.3854 29.7837 100.062 33.4782 103.401 33.4152C107.123 33.3613 108.298 30.0804 108.298 26.7725ZM103.846 31.6984C101.674 30.7995 101.87 27.0152 102.012 25.1904C102.025 25.0987 102.012 25.0051 101.974 24.9207C101.936 24.8363 101.875 24.7646 101.798 24.714C102.066 22.9163 102.76 20.2196 104.345 21.5589C105.609 22.6556 105.636 25.2893 105.698 26.8084C105.752 27.8691 105.618 32.3635 103.855 31.6984H103.846Z" fill="#2D3440"/>
<path d="M136.346 42.9973C135.349 40.4086 133.158 39.4018 130.745 39.2939C130.476 38.6368 130.139 38.0101 129.739 37.4243C126.258 32.2197 117.995 32.9298 112.394 35.6265C112.394 34.8085 112.314 33.9905 112.278 33.1725C113.393 33.2634 114.511 33.063 115.527 32.5907C116.542 32.1184 117.42 31.39 118.075 30.4759C119.562 28.3276 119.348 24.5163 118.761 22.1073C118.209 19.8421 116.018 20.2466 114.371 21.0016C113.765 21.2914 113.206 21.6734 112.715 22.1342C112.715 21.532 112.813 20.9207 112.857 20.3365C112.955 18.9522 110.328 19.3027 110.239 20.5252C109.83 26.0893 109.972 31.6354 109.848 37.1906C108.268 38.5011 107.013 40.1661 106.182 42.0528C105.352 43.9395 104.97 45.9959 105.066 48.0581C105.066 50.0985 106.785 51.6536 108.628 50.1974C111.201 48.2019 111.985 44.2378 112.341 41.2086C112.487 39.8566 112.534 38.4956 112.483 37.1366C114.491 35.8074 116.836 35.0919 119.237 35.0759C121.638 35.06 123.993 35.7443 126.017 37.0467C126.887 37.6665 127.583 38.5025 128.039 39.4737C126.615 39.7308 125.232 40.1782 123.925 40.8041C122.402 41.5412 120.141 43.285 120.248 45.2356C120.23 45.8528 120.423 46.4573 120.794 46.9481C121.166 47.439 121.692 47.7863 122.287 47.9322C122.368 47.9738 122.455 48.0011 122.545 48.0131C128.012 48.912 132.081 45.6491 131.298 41.0558C133.969 42.5209 134.957 45.9187 134.013 48.8401C131.885 55.402 123.693 56.8671 118.921 52.4806C118.404 52.0132 116.081 53.0019 116.49 53.3795C123.382 59.7346 140.549 53.8559 136.346 42.9973ZM109.687 41.4063C109.612 42.9935 109.269 44.556 108.672 46.0266C108.45 46.521 108.209 46.9974 107.951 47.4648C107.951 47.4648 107.72 47.5187 107.675 46.8176C107.671 44.2993 108.395 41.8345 109.759 39.7254C109.741 40.2827 109.723 40.849 109.687 41.4063ZM112.474 25.3522C112.526 25.308 112.571 25.2565 112.608 25.1994C113.086 24.3855 113.654 23.6287 114.3 22.9432C114.766 22.4084 115.309 21.9478 115.911 21.5769C116.196 21.7207 116.49 22.4758 116.597 23.4916C116.873 25.9904 116.989 32.5703 113.089 31.9501C112.785 31.9364 112.481 31.9885 112.198 32.1029C112.189 29.8197 112.314 27.5905 112.474 25.3522ZM124.121 46.6918H124.067C122.572 46.3322 122.732 44.894 122.928 43.9232C123.364 41.649 126.106 40.4265 128.368 40.3277C129.517 43.5636 128.635 47.4378 124.121 46.6918Z" fill="#2D3440"/>
</g></symbol><symbol id="logo-mobile" viewBox="0 0 120 50"><g fill="none">
<path d="M46.2398 33.0717C45.6648 33.0053 45.0829 33.1064 44.563 33.363C44.563 33.363 42.2232 35.3392 30.6492 33.0638C22.1403 31.3868 17.7182 31.56 17.7182 31.56C17.7182 31.56 19.1454 21.7182 18.7555 18.9625C18.7376 18.7592 18.6422 18.5709 18.4894 18.4372C18.3367 18.3036 18.1384 18.235 17.9366 18.246C17.0865 18.246 16.5717 18.5767 16.5717 19.0333C16.6446 20.8938 16.5795 22.7571 16.3767 24.6077C16.0234 25.5855 15.3602 26.418 14.49 26.9761C13.6199 27.5342 12.5915 27.7866 11.5646 27.6941C7.86004 27.4343 7.08012 24.7416 6.75255 22.9071C6.42499 21.0726 6.23781 15.947 7.2127 13.8526C7.2127 13.8526 12.7969 14.0495 16.3065 11.0261C19.8162 8.00266 19.5978 5.38867 17.9366 4.27064C16.2753 3.15262 12.3836 3.34945 9.39647 6.10516C7.68141 7.61753 6.32703 9.50158 5.43449 11.6166C5.43449 11.6166 1.04355 10.6718 2.04965 6.04217C3.11814 1.20788 9.66165 1.77476 9.66165 1.77476C11.0265 2.04246 11.0889 2.16843 11.5412 1.71178C11.9936 1.25512 12.3212 0.0740994 10.1764 0.00323841C8.03162 -0.0676226 1.5973 1.00317 0.365026 5.31781C-0.953035 9.90803 1.48031 13.1913 4.74816 13.703C4.74816 13.703 2.96215 21.6552 5.16932 25.5919C5.78115 26.836 6.74541 27.8684 7.93964 28.5581C9.13387 29.2479 10.5042 29.5637 11.8766 29.4657C13.1635 29.4657 15.4408 28.7413 16.0882 27.6941C16.0882 27.6941 15.784 30.5128 15.5266 31.5364C15.5266 31.5364 10.114 31.4655 8.42158 32.3237C5.54368 33.859 6.14422 37.4572 7.2517 38.7327C8.1876 39.8192 11.0031 40.4097 13.0387 39.4413C14.2037 38.8753 15.2101 38.0242 15.9661 36.9653C16.7221 35.9064 17.2037 34.6735 17.3672 33.3788C20.6604 33.2077 23.9595 33.5692 27.1396 34.4495C31.9517 35.8983 38.6512 37.2525 40.6634 37.2525C42.6756 37.2525 46.9027 36.6699 47.1601 34.9771C47.3005 33.859 46.8871 33.2764 46.2398 33.0717ZM12.368 6.75865C12.368 6.75865 14.9261 4.79029 16.1506 6.01855C16.4255 6.3179 16.584 6.70745 16.5969 7.11545C16.6098 7.52346 16.4762 7.92242 16.2208 8.23886C15.706 8.91597 14.349 11.0576 7.90683 12.1205C7.90683 12.1205 9.93462 8.53018 12.368 6.75865ZM12.5785 37.3942C12.5785 37.3942 9.04551 39.339 8.67895 36.7013C8.53732 36.1514 8.58709 35.5689 8.81992 35.0515C9.05275 34.5341 9.45452 34.1132 9.95802 33.859C10.5742 33.552 11.4165 33.1662 15.0899 33.3C15.0487 34.1412 14.7967 34.9582 14.3575 35.6742C13.9182 36.3903 13.3062 36.9821 12.5785 37.3942Z" fill="#2D3440"/>
<path d="M57.3848 18.6869C57.3848 20.4663 57.3848 22.2378 57.3848 24.0172C57.3848 24.0172 57.3848 24.0802 57.3848 24.1117C57.3231 24.8205 57.0931 25.5038 56.7141 26.1037C56.4746 26.5394 56.1634 26.9308 55.7938 27.2611C55.3804 27.6233 55.1075 26.8123 54.9515 26.4737C53.8674 24.1826 54.3899 21.1119 54.8111 18.7105C55.0061 17.561 52.6975 17.8602 52.5181 18.8838C52.0974 20.9307 51.9531 23.0256 52.0892 25.1116C51.8847 25.1279 51.686 25.1875 51.5059 25.2865C51.3258 25.3855 51.1685 25.5218 51.0441 25.6864C50.6463 26.5446 49.4843 29.3948 48.057 28.2531C47.0275 27.4658 46.9183 25.3085 46.8091 24.1038C46.6849 22.434 46.9026 20.7562 47.4487 19.1751C47.4019 19.3089 48.3378 16.9469 48.7511 17.8287C48.8629 18.2489 48.8781 18.6894 48.7957 19.1165C48.7132 19.5435 48.5353 19.946 48.2754 20.2931C47.0509 21.2222 48.9539 21.608 49.6948 21.0411C51.0987 19.9782 52.0346 16.5453 49.6402 16.1359C46.9339 15.6793 45.3975 18.435 44.8281 20.6238C44.5263 21.8808 44.3951 23.1734 44.4382 24.466C44.0638 25.1274 42.8004 27.2532 42.0594 27.6154C41.1859 28.0721 41.2015 27.4343 41.2327 27.0249C41.2639 26.6155 41.6539 22.9701 41.8645 20.5136C42.049 19.5383 41.9121 18.5289 41.4745 17.6397C41.1391 16.9548 38.3548 15.4194 35.9059 18.3011C34.5263 19.8214 33.682 21.7586 33.5037 23.8125C33.34 24.1432 33.1606 24.4975 32.95 24.8833C31.7801 27.0485 30.3061 27.9618 29.7835 26.458C29.2579 24.8915 29.0588 23.2322 29.1986 21.5843C31.0159 18.7443 32.3498 15.6174 33.145 12.333C34.3148 7.08934 34.0965 4.48323 33.4647 4.04231C32.833 3.6014 30.1501 2.51487 28.5357 8.96322C27.3379 13.5515 26.9187 18.3113 27.2956 23.0409C27.046 23.5763 26.734 24.2219 26.3363 24.9542C25.1664 27.1194 23.7002 28.0327 23.1698 26.5289C22.6548 24.9601 22.4662 23.3009 22.6161 21.6552C24.4334 18.8152 25.7673 15.6883 26.5625 12.4039C27.7713 7.08934 27.5296 4.48323 26.8978 4.04231C26.2661 3.6014 23.5832 2.51487 21.9765 8.96322C20.3699 15.4116 20.0502 22.4425 21.5866 27.1666C21.5866 27.1666 22.4289 29.8278 24.0043 29.631C25.3068 29.4657 26.8588 28.1744 27.7713 25.7651C27.8745 26.2387 28.0021 26.7065 28.1535 27.1666C28.1535 27.1666 28.9958 29.8278 30.5712 29.631C31.6397 29.4972 32.911 28.5917 33.8001 26.9383C34.3538 28.3791 35.5471 29.568 37.0836 29.3003C39.1659 28.9224 39.5949 27.7807 39.5949 27.7807C39.5949 27.7807 39.5559 29.6546 40.8896 29.6546C42.075 29.6546 43.0187 28.9539 43.9546 27.1666C44.2744 26.5604 44.4616 26.2061 44.563 26.0013C44.8359 27.6941 45.5301 29.198 46.9027 29.8042C49.2425 30.8278 51.2859 28.883 52.4869 26.9619C52.6409 27.4249 52.892 27.8488 53.2231 28.2048C53.5542 28.5608 53.9575 28.8405 54.4055 29.0247C54.9163 29.1868 55.4612 29.2042 55.9811 29.0751C56.5009 28.9459 56.9757 28.6753 57.3536 28.2925V31.064C56.926 31.041 56.5024 31.1569 56.1447 31.3947C54.9507 32.3837 54.0246 33.6623 53.4531 35.1108C52.8816 36.5594 52.6834 38.1306 52.8769 39.6775C52.9098 40.096 53.0449 40.4998 53.27 40.8528C53.4951 41.2058 53.8033 41.4971 54.1671 41.7006C54.5309 41.9041 54.9389 42.0135 55.3547 42.0191C55.7706 42.0246 56.1813 41.9262 56.5503 41.7325C58.9681 40.6696 59.3346 37.0084 59.5374 34.7724C60.0287 29.3948 59.6466 23.7968 59.6466 18.4035C59.6466 17.4114 57.3848 17.8759 57.3848 18.6869ZM23.591 9.86866C24.1291 7.7822 24.6283 6.94761 25.1508 6.94761C25.6734 6.94761 25.8761 7.50663 25.5096 9.30965C24.8295 12.7678 23.7592 16.136 22.3197 19.3483C22.3197 19.3483 23.0528 11.963 23.591 9.86866ZM30.1579 9.86866C30.696 7.7822 31.1952 6.94761 31.6787 6.94761C32.1623 6.94761 32.4119 7.50663 32.0453 9.30965C31.6787 11.1127 30.4855 16.0966 28.8554 19.3483C28.8554 19.3483 29.6353 11.963 30.1579 9.86866ZM40.1876 19.6868C40.1252 20.1435 39.8289 23.0645 39.4077 24.6392C38.9866 26.2139 38.698 26.7729 37.4345 27.3162C36.1711 27.8595 35.5315 26.1982 35.5315 26.1982C34.6346 23.6787 35.8357 21.4741 36.834 19.9624C37.8323 18.4507 38.8384 18.3169 39.4155 18.3877C39.5507 18.4218 39.678 18.4824 39.79 18.5662C39.902 18.6499 39.9966 18.7551 40.0683 18.8757C40.14 18.9964 40.1874 19.1301 40.2079 19.2693C40.2284 19.4085 40.2215 19.5504 40.1876 19.6868ZM57.3224 33.859C57.3695 35.9757 56.9485 38.0764 56.0902 40.0082C55.5442 40.1184 55.3102 39.9137 55.1231 39.0319C54.9944 38.1839 54.9944 37.321 55.1231 36.473C55.3781 34.9153 56.1412 33.4882 57.2912 32.4182C57.3302 32.9142 57.3302 33.3945 57.3224 33.859Z" fill="#2D3440"/>
<path d="M71.9849 16.4587C70.9705 16.007 70.0547 15.357 69.2904 14.5462C68.526 13.7354 67.9283 12.7798 67.5315 11.7347C66.5333 8.72701 69.8089 6.5067 72.4216 6.64055C75.0344 6.7744 76.4304 9.49074 76.3212 11.9236C76.2744 12.7818 75.7363 14.7187 74.6834 13.7109C73.9871 12.9131 73.5609 11.9119 73.4667 10.8528C73.3107 9.90015 71.049 10.467 71.205 11.467C71.6573 14.3486 74.7302 17.5216 77.3663 14.5061C77.9057 13.8234 78.285 13.0263 78.4758 12.1745C78.6666 11.3228 78.664 10.4384 78.4682 9.58785C78.2724 8.73725 77.8884 7.94242 77.345 7.26293C76.8017 6.58343 76.113 6.03688 75.3307 5.66424C73.5659 4.97048 71.6143 4.93244 69.8243 5.55691C68.0343 6.18138 66.5223 7.42771 65.5584 9.07344C63.4292 12.8921 67.7031 16.6241 70.7292 17.9862C75.5881 20.608 75.7675 29.0484 69.3098 29.1035C67.9831 29.0728 66.6975 28.6331 65.6255 27.8436C64.5534 27.0541 63.7462 25.9524 63.3122 24.6865C62.8676 23.3637 63.0938 18.742 64.872 18.3877C66.2837 18.1122 65.9015 16.813 64.5211 17.0571C61.6276 17.624 60.5591 21.3954 60.8399 24.033C61.2922 28.2374 65.1918 30.5916 69.1304 30.5601C70.8729 30.6106 72.5779 30.0438 73.9498 28.958C75.3216 27.8722 76.2738 26.3359 76.641 24.6156C76.9308 22.9211 76.6238 21.1776 75.7733 19.6876C74.9228 18.1977 73.5825 17.0553 71.9849 16.4587Z" fill="#2D3440"/>
<path d="M86.4758 28.9696C84.253 27.7414 85.5243 23.0094 85.8596 21.1907C86.078 20.0175 87.0685 18.2066 85.4775 17.8051C83.6135 17.3484 81.3985 19.1357 79.7997 20.8442C79.7984 18.8731 79.9417 16.9046 80.2286 14.9549C82.6949 13.7127 84.6695 11.6609 85.8284 9.13643C86.8423 7.08934 87.3415 2.83768 83.9098 4.08168C80.7902 5.18396 79.7217 8.80575 78.7468 11.711C78.3784 12.8348 78.0942 13.985 77.8967 15.1517C77.5856 15.2836 77.268 15.3992 76.9452 15.4982C75.6505 15.9076 75.8221 16.6083 77.1323 16.1989L77.7641 15.9942C77.1401 20.4112 77.5613 25.0408 77.9591 29.3791C77.9591 29.8042 80.2988 29.379 80.213 28.7649C80.0414 26.8281 79.8932 24.8912 79.8309 22.9701C80.0191 22.9145 80.189 22.8084 80.3222 22.663C81.0399 21.7535 81.8445 20.9175 82.7243 20.1671C82.9583 19.9545 83.2001 19.7577 83.4419 19.5687L83.8006 19.301C84.3232 18.8838 84.4246 18.8759 84.097 19.301C83.9748 20.0518 83.8134 20.7956 83.6135 21.5292C83.1845 23.8913 81.9522 28.5287 84.6585 30.0168C85.2435 30.316 87.3493 29.4342 86.4758 28.9696ZM81.4141 9.98676C81.6559 9.28603 81.9756 8.59316 82.272 7.91605C82.6386 7.06572 83.6213 4.16042 84.331 5.55401C84.9003 6.66417 84.0034 8.48293 83.6057 9.54585C82.9794 11.2077 81.8973 12.6551 80.486 13.7188C80.7135 12.4555 81.0236 11.2088 81.4141 9.98676Z" fill="#2D3440"/>
<path d="M94.8599 23.4503C94.8599 20.86 94.5713 17.5374 91.5062 17.2618C88.1448 16.9548 86.8267 20.5057 86.7799 23.159C86.7751 23.2529 86.7986 23.3461 86.8473 23.4262C86.8961 23.5064 86.9677 23.5697 87.0529 23.6078C87.0529 26.0879 87.6456 29.3239 90.5703 29.2688C93.8304 29.2216 94.8599 26.3478 94.8599 23.4503ZM90.9603 27.765C89.0573 26.9776 89.2289 23.6629 89.3537 22.0646C89.3652 21.9843 89.3537 21.9023 89.3205 21.8283C89.2873 21.7544 89.2339 21.6916 89.1665 21.6473C89.4004 20.0726 90.0088 17.7106 91.397 18.8838C92.5045 19.8443 92.5279 22.1512 92.5825 23.4818C92.6293 24.4109 92.5123 28.3476 90.9681 27.765H90.9603Z" fill="#2D3440"/>
<path d="M119.427 37.6619C118.554 35.3944 116.635 34.5125 114.522 34.4181C114.286 33.8424 113.99 33.2935 113.64 32.7804C110.591 28.2217 103.353 28.8437 98.4475 31.2057C98.4475 30.4892 98.3773 29.7727 98.3461 29.0562C99.3221 29.1358 100.302 28.9603 101.191 28.5466C102.08 28.1329 102.849 27.4949 103.423 26.6942C104.726 24.8125 104.539 21.4741 104.024 19.364C103.54 17.3799 101.622 17.7342 100.179 18.3956C99.6479 18.6494 99.1587 18.984 98.7283 19.3877C98.7283 18.8601 98.8141 18.3247 98.8531 17.813C98.9388 16.6005 96.6381 16.9075 96.5601 17.9783C96.2013 22.852 96.3261 27.7099 96.2169 32.5757C94.8329 33.7236 93.7336 35.182 93.0065 36.8346C92.2794 38.4872 91.9446 40.2884 92.0288 42.0947C92.0288 43.8819 93.534 45.244 95.1484 43.9685C97.4024 42.2206 98.0887 38.7484 98.4007 36.0951C98.5285 34.9109 98.5702 33.7188 98.5255 32.5284C100.284 31.3642 102.338 30.7374 104.441 30.7234C106.544 30.7095 108.607 31.3089 110.38 32.4497C111.142 32.9925 111.752 33.7248 112.151 34.5755C110.904 34.8007 109.692 35.1926 108.547 35.7408C107.214 36.3864 105.233 37.9139 105.326 39.6224C105.311 40.163 105.48 40.6925 105.805 41.1225C106.13 41.5524 106.592 41.8566 107.112 41.9844C107.183 42.0208 107.26 42.0448 107.339 42.0553C112.127 42.8426 115.691 39.9846 115.005 35.9612C117.345 37.2446 118.211 40.2208 117.384 42.7796C115.52 48.5273 108.345 49.8106 104.164 45.9684C103.712 45.559 101.676 46.4251 102.035 46.7557C108.072 52.3223 123.108 47.173 119.427 37.6619ZM96.0765 36.2683C96.0103 37.6585 95.7097 39.0271 95.1874 40.3153C94.9925 40.7483 94.7819 41.1656 94.5557 41.575C94.5557 41.575 94.3529 41.6223 94.3139 41.0081C94.3107 38.8023 94.9449 36.6434 96.1389 34.796C96.1233 35.2841 96.1077 35.7802 96.0765 36.2683ZM98.5177 22.2063C98.5628 22.1676 98.6022 22.1225 98.6347 22.0725C99.0535 21.3596 99.5505 20.6967 100.117 20.0963C100.525 19.6278 101.001 19.2243 101.528 18.8995C101.778 19.0255 102.035 19.6868 102.129 20.5765C102.37 22.7654 102.472 28.5287 99.0558 27.9854C98.7894 27.9735 98.5235 28.0191 98.2759 28.1193C98.2681 26.1194 98.3773 24.1668 98.5177 22.2063ZM108.719 40.8979H108.672C107.362 40.583 107.502 39.3232 107.674 38.4729C108.056 36.4809 110.458 35.4101 112.439 35.3235C113.445 38.1579 112.673 41.5514 108.719 40.8979Z" fill="#2D3440"/>
</g></symbol></svg>