<svg width="120" height="50" viewBox="0 0 120 50" fill="none" xmlns="http://www.w3.org/2000/svg">
<path d="M46.2398 33.0717C45.6648 33.0053 45.0829 33.1064 44.563 33.363C44.563 33.363 42.2232 35.3392 30.6492 33.0638C22.1403 31.3868 17.7182 31.56 17.7182 31.56C17.7182 31.56 19.1454 21.7182 18.7555 18.9625C18.7376 18.7592 18.6422 18.5709 18.4894 18.4372C18.3367 18.3036 18.1384 18.235 17.9366 18.246C17.0865 18.246 16.5717 18.5767 16.5717 19.0333C16.6446 20.8938 16.5795 22.7571 16.3767 24.6077C16.0234 25.5855 15.3602 26.418 14.49 26.9761C13.6199 27.5342 12.5915 27.7866 11.5646 27.6941C7.86004 27.4343 7.08012 24.7416 6.75255 22.9071C6.42499 21.0726 6.23781 15.947 7.2127 13.8526C7.2127 13.8526 12.7969 14.0495 16.3065 11.0261C19.8162 8.00266 19.5978 5.38867 17.9366 4.27064C16.2753 3.15262 12.3836 3.34945 9.39647 6.10516C7.68141 7.61753 6.32703 9.50158 5.43449 11.6166C5.43449 11.6166 1.04355 10.6718 2.04965 6.04217C3.11814 1.20788 9.66165 1.77476 9.66165 1.77476C11.0265 2.04246 11.0889 2.16843 11.5412 1.71178C11.9936 1.25512 12.3212 0.0740994 10.1764 0.00323841C8.03162 -0.0676226 1.5973 1.00317 0.365026 5.31781C-0.953035 9.90803 1.48031 13.1913 4.74816 13.703C4.74816 13.703 2.96215 21.6552 5.16932 25.5919C5.78115 26.836 6.74541 27.8684 7.93964 28.5581C9.13387 29.2479 10.5042 29.5637 11.8766 29.4657C13.1635 29.4657 15.4408 28.7413 16.0882 27.6941C16.0882 27.6941 15.784 30.5128 15.5266 31.5364C15.5266 31.5364 10.114 31.4655 8.42158 32.3237C5.54368 33.859 6.14422 37.4572 7.2517 38.7327C8.1876 39.8192 11.0031 40.4097 13.0387 39.4413C14.2037 38.8753 15.2101 38.0242 15.9661 36.9653C16.7221 35.9064 17.2037 34.6735 17.3672 33.3788C20.6604 33.2077 23.9595 33.5692 27.1396 34.4495C31.9517 35.8983 38.6512 37.2525 40.6634 37.2525C42.6756 37.2525 46.9027 36.6699 47.1601 34.9771C47.3005 33.859 46.8871 33.2764 46.2398 33.0717ZM12.368 6.75865C12.368 6.75865 14.9261 4.79029 16.1506 6.01855C16.4255 6.3179 16.584 6.70745 16.5969 7.11545C16.6098 7.52346 16.4762 7.92242 16.2208 8.23886C15.706 8.91597 14.349 11.0576 7.90683 12.1205C7.90683 12.1205 9.93462 8.53018 12.368 6.75865ZM12.5785 37.3942C12.5785 37.3942 9.04551 39.339 8.67895 36.7013C8.53732 36.1514 8.58709 35.5689 8.81992 35.0515C9.05275 34.5341 9.45452 34.1132 9.95802 33.859C10.5742 33.552 11.4165 33.1662 15.0899 33.3C15.0487 34.1412 14.7967 34.9582 14.3575 35.6742C13.9182 36.3903 13.3062 36.9821 12.5785 37.3942Z" fill="#2D3440"/>
<path d="M57.3848 18.6869C57.3848 20.4663 57.3848 22.2378 57.3848 24.0172C57.3848 24.0172 57.3848 24.0802 57.3848 24.1117C57.3231 24.8205 57.0931 25.5038 56.7141 26.1037C56.4746 26.5394 56.1634 26.9308 55.7938 27.2611C55.3804 27.6233 55.1075 26.8123 54.9515 26.4737C53.8674 24.1826 54.3899 21.1119 54.8111 18.7105C55.0061 17.561 52.6975 17.8602 52.5181 18.8838C52.0974 20.9307 51.9531 23.0256 52.0892 25.1116C51.8847 25.1279 51.686 25.1875 51.5059 25.2865C51.3258 25.3855 51.1685 25.5218 51.0441 25.6864C50.6463 26.5446 49.4843 29.3948 48.057 28.2531C47.0275 27.4658 46.9183 25.3085 46.8091 24.1038C46.6849 22.434 46.9026 20.7562 47.4487 19.1751C47.4019 19.3089 48.3378 16.9469 48.7511 17.8287C48.8629 18.2489 48.8781 18.6894 48.7957 19.1165C48.7132 19.5435 48.5353 19.946 48.2754 20.2931C47.0509 21.2222 48.9539 21.608 49.6948 21.0411C51.0987 19.9782 52.0346 16.5453 49.6402 16.1359C46.9339 15.6793 45.3975 18.435 44.8281 20.6238C44.5263 21.8808 44.3951 23.1734 44.4382 24.466C44.0638 25.1274 42.8004 27.2532 42.0594 27.6154C41.1859 28.0721 41.2015 27.4343 41.2327 27.0249C41.2639 26.6155 41.6539 22.9701 41.8645 20.5136C42.049 19.5383 41.9121 18.5289 41.4745 17.6397C41.1391 16.9548 38.3548 15.4194 35.9059 18.3011C34.5263 19.8214 33.682 21.7586 33.5037 23.8125C33.34 24.1432 33.1606 24.4975 32.95 24.8833C31.7801 27.0485 30.3061 27.9618 29.7835 26.458C29.2579 24.8915 29.0588 23.2322 29.1986 21.5843C31.0159 18.7443 32.3498 15.6174 33.145 12.333C34.3148 7.08934 34.0965 4.48323 33.4647 4.04231C32.833 3.6014 30.1501 2.51487 28.5357 8.96322C27.3379 13.5515 26.9187 18.3113 27.2956 23.0409C27.046 23.5763 26.734 24.2219 26.3363 24.9542C25.1664 27.1194 23.7002 28.0327 23.1698 26.5289C22.6548 24.9601 22.4662 23.3009 22.6161 21.6552C24.4334 18.8152 25.7673 15.6883 26.5625 12.4039C27.7713 7.08934 27.5296 4.48323 26.8978 4.04231C26.2661 3.6014 23.5832 2.51487 21.9765 8.96322C20.3699 15.4116 20.0502 22.4425 21.5866 27.1666C21.5866 27.1666 22.4289 29.8278 24.0043 29.631C25.3068 29.4657 26.8588 28.1744 27.7713 25.7651C27.8745 26.2387 28.0021 26.7065 28.1535 27.1666C28.1535 27.1666 28.9958 29.8278 30.5712 29.631C31.6397 29.4972 32.911 28.5917 33.8001 26.9383C34.3538 28.3791 35.5471 29.568 37.0836 29.3003C39.1659 28.9224 39.5949 27.7807 39.5949 27.7807C39.5949 27.7807 39.5559 29.6546 40.8896 29.6546C42.075 29.6546 43.0187 28.9539 43.9546 27.1666C44.2744 26.5604 44.4616 26.2061 44.563 26.0013C44.8359 27.6941 45.5301 29.198 46.9027 29.8042C49.2425 30.8278 51.2859 28.883 52.4869 26.9619C52.6409 27.4249 52.892 27.8488 53.2231 28.2048C53.5542 28.5608 53.9575 28.8405 54.4055 29.0247C54.9163 29.1868 55.4612 29.2042 55.9811 29.0751C56.5009 28.9459 56.9757 28.6753 57.3536 28.2925V31.064C56.926 31.041 56.5024 31.1569 56.1447 31.3947C54.9507 32.3837 54.0246 33.6623 53.4531 35.1108C52.8816 36.5594 52.6834 38.1306 52.8769 39.6775C52.9098 40.096 53.0449 40.4998 53.27 40.8528C53.4951 41.2058 53.8033 41.4971 54.1671 41.7006C54.5309 41.9041 54.9389 42.0135 55.3547 42.0191C55.7706 42.0246 56.1813 41.9262 56.5503 41.7325C58.9681 40.6696 59.3346 37.0084 59.5374 34.7724C60.0287 29.3948 59.6466 23.7968 59.6466 18.4035C59.6466 17.4114 57.3848 17.8759 57.3848 18.6869ZM23.591 9.86866C24.1291 7.7822 24.6283 6.94761 25.1508 6.94761C25.6734 6.94761 25.8761 7.50663 25.5096 9.30965C24.8295 12.7678 23.7592 16.136 22.3197 19.3483C22.3197 19.3483 23.0528 11.963 23.591 9.86866ZM30.1579 9.86866C30.696 7.7822 31.1952 6.94761 31.6787 6.94761C32.1623 6.94761 32.4119 7.50663 32.0453 9.30965C31.6787 11.1127 30.4855 16.0966 28.8554 19.3483C28.8554 19.3483 29.6353 11.963 30.1579 9.86866ZM40.1876 19.6868C40.1252 20.1435 39.8289 23.0645 39.4077 24.6392C38.9866 26.2139 38.698 26.7729 37.4345 27.3162C36.1711 27.8595 35.5315 26.1982 35.5315 26.1982C34.6346 23.6787 35.8357 21.4741 36.834 19.9624C37.8323 18.4507 38.8384 18.3169 39.4155 18.3877C39.5507 18.4218 39.678 18.4824 39.79 18.5662C39.902 18.6499 39.9966 18.7551 40.0683 18.8757C40.14 18.9964 40.1874 19.1301 40.2079 19.2693C40.2284 19.4085 40.2215 19.5504 40.1876 19.6868ZM57.3224 33.859C57.3695 35.9757 56.9485 38.0764 56.0902 40.0082C55.5442 40.1184 55.3102 39.9137 55.1231 39.0319C54.9944 38.1839 54.9944 37.321 55.1231 36.473C55.3781 34.9153 56.1412 33.4882 57.2912 32.4182C57.3302 32.9142 57.3302 33.3945 57.3224 33.859Z" fill="#2D3440"/>
<path d="M71.9849 16.4587C70.9705 16.007 70.0547 15.357 69.2904 14.5462C68.526 13.7354 67.9283 12.7798 67.5315 11.7347C66.5333 8.72701 69.8089 6.5067 72.4216 6.64055C75.0344 6.7744 76.4304 9.49074 76.3212 11.9236C76.2744 12.7818 75.7363 14.7187 74.6834 13.7109C73.9871 12.9131 73.5609 11.9119 73.4667 10.8528C73.3107 9.90015 71.049 10.467 71.205 11.467C71.6573 14.3486 74.7302 17.5216 77.3663 14.5061C77.9057 13.8234 78.285 13.0263 78.4758 12.1745C78.6666 11.3228 78.664 10.4384 78.4682 9.58785C78.2724 8.73725 77.8884 7.94242 77.345 7.26293C76.8017 6.58343 76.113 6.03688 75.3307 5.66424C73.5659 4.97048 71.6143 4.93244 69.8243 5.55691C68.0343 6.18138 66.5223 7.42771 65.5584 9.07344C63.4292 12.8921 67.7031 16.6241 70.7292 17.9862C75.5881 20.608 75.7675 29.0484 69.3098 29.1035C67.9831 29.0728 66.6975 28.6331 65.6255 27.8436C64.5534 27.0541 63.7462 25.9524 63.3122 24.6865C62.8676 23.3637 63.0938 18.742 64.872 18.3877C66.2837 18.1122 65.9015 16.813 64.5211 17.0571C61.6276 17.624 60.5591 21.3954 60.8399 24.033C61.2922 28.2374 65.1918 30.5916 69.1304 30.5601C70.8729 30.6106 72.5779 30.0438 73.9498 28.958C75.3216 27.8722 76.2738 26.3359 76.641 24.6156C76.9308 22.9211 76.6238 21.1776 75.7733 19.6876C74.9228 18.1977 73.5825 17.0553 71.9849 16.4587Z" fill="#2D3440"/>
<path d="M86.4758 28.9696C84.253 27.7414 85.5243 23.0094 85.8596 21.1907C86.078 20.0175 87.0685 18.2066 85.4775 17.8051C83.6135 17.3484 81.3985 19.1357 79.7997 20.8442C79.7984 18.8731 79.9417 16.9046 80.2286 14.9549C82.6949 13.7127 84.6695 11.6609 85.8284 9.13643C86.8423 7.08934 87.3415 2.83768 83.9098 4.08168C80.7902 5.18396 79.7217 8.80575 78.7468 11.711C78.3784 12.8348 78.0942 13.985 77.8967 15.1517C77.5856 15.2836 77.268 15.3992 76.9452 15.4982C75.6505 15.9076 75.8221 16.6083 77.1323 16.1989L77.7641 15.9942C77.1401 20.4112 77.5613 25.0408 77.9591 29.3791C77.9591 29.8042 80.2988 29.379 80.213 28.7649C80.0414 26.8281 79.8932 24.8912 79.8309 22.9701C80.0191 22.9145 80.189 22.8084 80.3222 22.663C81.0399 21.7535 81.8445 20.9175 82.7243 20.1671C82.9583 19.9545 83.2001 19.7577 83.4419 19.5687L83.8006 19.301C84.3232 18.8838 84.4246 18.8759 84.097 19.301C83.9748 20.0518 83.8134 20.7956 83.6135 21.5292C83.1845 23.8913 81.9522 28.5287 84.6585 30.0168C85.2435 30.316 87.3493 29.4342 86.4758 28.9696ZM81.4141 9.98676C81.6559 9.28603 81.9756 8.59316 82.272 7.91605C82.6386 7.06572 83.6213 4.16042 84.331 5.55401C84.9003 6.66417 84.0034 8.48293 83.6057 9.54585C82.9794 11.2077 81.8973 12.6551 80.486 13.7188C80.7135 12.4555 81.0236 11.2088 81.4141 9.98676Z" fill="#2D3440"/>
<path d="M94.8599 23.4503C94.8599 20.86 94.5713 17.5374 91.5062 17.2618C88.1448 16.9548 86.8267 20.5057 86.7799 23.159C86.7751 23.2529 86.7986 23.3461 86.8473 23.4262C86.8961 23.5064 86.9677 23.5697 87.0529 23.6078C87.0529 26.0879 87.6456 29.3239 90.5703 29.2688C93.8304 29.2216 94.8599 26.3478 94.8599 23.4503ZM90.9603 27.765C89.0573 26.9776 89.2289 23.6629 89.3537 22.0646C89.3652 21.9843 89.3537 21.9023 89.3205 21.8283C89.2873 21.7544 89.2339 21.6916 89.1665 21.6473C89.4004 20.0726 90.0088 17.7106 91.397 18.8838C92.5045 19.8443 92.5279 22.1512 92.5825 23.4818C92.6293 24.4109 92.5123 28.3476 90.9681 27.765H90.9603Z" fill="#2D3440"/>
<path d="M119.427 37.6619C118.554 35.3944 116.635 34.5125 114.522 34.4181C114.286 33.8424 113.99 33.2935 113.64 32.7804C110.591 28.2217 103.353 28.8437 98.4475 31.2057C98.4475 30.4892 98.3773 29.7727 98.3461 29.0562C99.3221 29.1358 100.302 28.9603 101.191 28.5466C102.08 28.1329 102.849 27.4949 103.423 26.6942C104.726 24.8125 104.539 21.4741 104.024 19.364C103.54 17.3799 101.622 17.7342 100.179 18.3956C99.6479 18.6494 99.1587 18.984 98.7283 19.3877C98.7283 18.8601 98.8141 18.3247 98.8531 17.813C98.9388 16.6005 96.6381 16.9075 96.5601 17.9783C96.2013 22.852 96.3261 27.7099 96.2169 32.5757C94.8329 33.7236 93.7336 35.182 93.0065 36.8346C92.2794 38.4872 91.9446 40.2884 92.0288 42.0947C92.0288 43.8819 93.534 45.244 95.1484 43.9685C97.4024 42.2206 98.0887 38.7484 98.4007 36.0951C98.5285 34.9109 98.5702 33.7188 98.5255 32.5284C100.284 31.3642 102.338 30.7374 104.441 30.7234C106.544 30.7095 108.607 31.3089 110.38 32.4497C111.142 32.9925 111.752 33.7248 112.151 34.5755C110.904 34.8007 109.692 35.1926 108.547 35.7408C107.214 36.3864 105.233 37.9139 105.326 39.6224C105.311 40.163 105.48 40.6925 105.805 41.1225C106.13 41.5524 106.592 41.8566 107.112 41.9844C107.183 42.0208 107.26 42.0448 107.339 42.0553C112.127 42.8426 115.691 39.9846 115.005 35.9612C117.345 37.2446 118.211 40.2208 117.384 42.7796C115.52 48.5273 108.345 49.8106 104.164 45.9684C103.712 45.559 101.676 46.4251 102.035 46.7557C108.072 52.3223 123.108 47.173 119.427 37.6619ZM96.0765 36.2683C96.0103 37.6585 95.7097 39.0271 95.1874 40.3153C94.9925 40.7483 94.7819 41.1656 94.5557 41.575C94.5557 41.575 94.3529 41.6223 94.3139 41.0081C94.3107 38.8023 94.9449 36.6434 96.1389 34.796C96.1233 35.2841 96.1077 35.7802 96.0765 36.2683ZM98.5177 22.2063C98.5628 22.1676 98.6022 22.1225 98.6347 22.0725C99.0535 21.3596 99.5505 20.6967 100.117 20.0963C100.525 19.6278 101.001 19.2243 101.528 18.8995C101.778 19.0255 102.035 19.6868 102.129 20.5765C102.37 22.7654 102.472 28.5287 99.0558 27.9854C98.7894 27.9735 98.5235 28.0191 98.2759 28.1193C98.2681 26.1194 98.3773 24.1668 98.5177 22.2063ZM108.719 40.8979H108.672C107.362 40.583 107.502 39.3232 107.674 38.4729C108.056 36.4809 110.458 35.4101 112.439 35.3235C113.445 38.1579 112.673 41.5514 108.719 40.8979Z" fill="#2D3440"/>
</svg>
