<?xml version="1.0" encoding="utf-8"?><svg viewBox="0 0 120 50" xmlns="http://www.w3.org/2000/svg" xmlns:xlink="http://www.w3.org/1999/xlink"><style>:root>svg{display:none}:root>svg:target{display:block}</style><svg fill="none" viewBox="0 0 8 6" id="icon-breadcrumbs" xmlns="http://www.w3.org/2000/svg"><path fill-rule="evenodd" clip-rule="evenodd" d="M1.354.146a.5.5 0 10-.708.708L2.793 3 .646 5.146a.5.5 0 10.708.708l2.5-2.5a.5.5 0 000-.708l-2.5-2.5zm3.5 0a.5.5 0 10-.708.708L6.293 3 4.146 5.146a.5.5 0 10.708.708l2.5-2.5a.5.5 0 000-.708l-2.5-2.5z" fill="#2D3440"/></svg><svg fill="none" viewBox="0 0 17 16" id="icon-cart" xmlns="http://www.w3.org/2000/svg"><path fill-rule="evenodd" clip-rule="evenodd" d="M1.312.49a.667.667 0 100 1.333h2.061l.54 2.696a.659.659 0 00.011.056l1.089 5.44a1.97 1.97 0 001.963 1.586h6.325a1.97 1.97 0 001.963-1.587l.001-.005 1.043-5.469a.666.666 0 00-.655-.791H5.12l-.545-2.724A.667.667 0 003.92.49H1.312zm5.009 9.264l-.935-4.672h9.462l-.892 4.675a.637.637 0 01-.636.51H6.957a.637.637 0 01-.637-.512v-.001zm-1.11 4.44a1.318 1.318 0 112.635 0 1.318 1.318 0 01-2.636 0zm7.17 0a1.318 1.318 0 112.635 0 1.318 1.318 0 01-2.636 0z" fill="#2D3440"/></svg><svg fill="none" viewBox="0 0 48 48" id="icon-cow" xmlns="http://www.w3.org/2000/svg"><circle cx="24" cy="24" r="23" stroke="#2D3440" stroke-width="2"/><path d="M34.749 18.287a12.053 12.053 0 00.458-9.553 1.007 1.007 0 00-.337-.479 1.07 1.07 0 00-1.14-.109c-.18.093-.33.234-.427.407-1.322 2.285-4.163 5.969-6.244 6.14h-.093a17.336 17.336 0 00-2.904-.302c-.978.019-1.953.12-2.913.302h-.073c-2.081-.161-4.963-3.845-6.295-6.13a1.021 1.021 0 00-.425-.434 1.07 1.07 0 00-1.175.104c-.161.13-.279.305-.336.5a11.996 11.996 0 00.406 9.544c-1.81.221-4.11.785-4.943 2.204a2.15 2.15 0 000 2.215c.239.411.593.748 1.023.97.43.224.916.323 1.402.288a7.575 7.575 0 002.518-.483 8.446 8.446 0 00.135 1.62 34.441 34.441 0 001.821 5.235c.198.473.416 1.007.53 1.329-.34.808-.609 1.643-.8 2.496-.05.603.028 1.21.229 1.782.2.573.518 1.1.936 1.55C17.611 39.154 20.264 40 24.032 40c3.766 0 6.43-.846 7.928-2.517.42-.448.74-.975.94-1.549.2-.573.278-1.18.226-1.783a14.586 14.586 0 00-.791-2.496c.114-.322.333-.846.52-1.329a32.616 32.616 0 001.821-5.234 7.79 7.79 0 00.146-1.621c.777.294 1.6.457 2.435.483.487.035.975-.065 1.406-.288.43-.222.788-.559 1.029-.97a2.15 2.15 0 000-2.215c-.822-1.369-3.122-1.973-4.943-2.194zm-.989-6.684a9.263 9.263 0 01-1.04 6.15c-.26-.306-.539-.599-.832-.875a7.487 7.487 0 00-1.988-1.269 17.355 17.355 0 003.86-4.006zm-19.468 0a16.957 16.957 0 003.85 4.026 6.815 6.815 0 00-1.967 1.269c-.298.276-.58.568-.843.875a9.283 9.283 0 01-1.04-6.17zm-4.1 10.127c-.094-.162-.063-.212 0-.252.24-.393 1.446-1.007 3.756-1.238-.114.292-.218.584-.312.886-1.353.674-3.163 1.097-3.444.604zm22.434 3.02c-.436 1.652-.999 3.27-1.685 4.841a19.56 19.56 0 00-.718 1.883l-.063.312.115.282c.329.767.597 1.558.8 2.365.012.318-.042.634-.158.931-.116.298-.292.57-.518.8-.749.836-2.455 1.823-6.357 1.823s-5.609-1.007-6.358-1.822a2.421 2.421 0 01-.677-1.732c.209-.807.48-1.598.812-2.365l.114-.282-.072-.312a15.966 15.966 0 00-.708-1.893 32.414 32.414 0 01-1.706-4.872 7.002 7.002 0 01.283-3.465 7.201 7.201 0 011.923-2.937c1.57-1.53 5.13-1.872 6.368-1.883 1.238-.01 4.724.343 6.389 1.903a7.116 7.116 0 011.935 2.922 6.917 6.917 0 01.281 3.46v.04zm5.203-3.02c-.27.483-2.081.07-3.371-.595a10.09 10.09 0 00-.302-.895c2.29.231 3.486.845 3.715 1.238.052.04.072.09-.021.252h-.02z" fill="#2D3440"/></svg><svg fill="none" viewBox="0 0 10 10" id="icon-cross" xmlns="http://www.w3.org/2000/svg"><path fill-rule="evenodd" clip-rule="evenodd" d="M9.803 1.138A.667.667 0 108.86.195L5 4.056 1.137.196a.667.667 0 10-.943.942L4.056 5 .196 8.86a.667.667 0 00.942.943L5 5.942 8.86 9.803a.667.667 0 10.943-.943L5.942 5l3.861-3.862z" fill="#2D3440"/></svg><svg fill="none" viewBox="0 0 14 14" id="icon-heart" xmlns="http://www.w3.org/2000/svg"><path d="M12.89 1.994a3.667 3.667 0 00-5.186 0l-.706.707-.707-.707a3.668 3.668 0 00-5.187 5.187l.707.707 5.187 5.187 5.186-5.187.707-.707a3.667 3.667 0 000-5.187z" fill="#2D3440"/></svg><svg fill="none" viewBox="0 0 93 27" id="icon-html" xmlns="http://www.w3.org/2000/svg"><g clip-path="url(#fclip0_521_0)" fill="#2D3440"><path d="M0 10.416V12.5h1.988v-2.083H0zM9.419 3.663c-1.262 0-2.282.573-2.922 1.406h-.069V0H4.786v12.5h1.642V8.212c0-1.72 1.072-2.952 2.645-2.952 1.486 0 2.35 1.111 2.35 2.604V12.5h1.643V7.57c0-2.38-1.47-3.907-3.647-3.907zM21.525 3.906h-3.889V.868h-1.642v3.038H14.44v1.597h1.555v4.844c0 1.389.778 2.153 2.178 2.153h3.353v-1.615h-3.024c-.554 0-.865-.312-.865-.85V5.503h3.89V3.906zM33.255 3.68c-1.314 0-2.316.643-2.87 1.667h-.051C29.832 4.34 28.899 3.68 27.62 3.68c-1.14 0-2.005.608-2.523 1.459h-.07V3.906h-1.572V12.5h1.642V8.09c0-1.615.846-2.795 2.126-2.83 1.21-.034 1.918.834 1.918 2.136V12.5h1.642V7.95c0-1.927 1.14-2.69 2.126-2.69 1.193 0 1.901.833 1.901 2.135V12.5h1.642V7.222c0-2.083-1.175-3.542-3.197-3.542zM38.678 10.277c0 1.407.795 2.223 2.264 2.223h1.624v-1.598h-1.382c-.553 0-.865-.312-.865-.85V0h-1.641v10.277zM23.375 15.936h-.069c-.64-.863-1.68-1.467-3.065-1.484-2.545-.034-4.363 1.847-4.363 4.505 0 2.675 1.852 4.556 4.346 4.521 1.42-.017 2.441-.655 3.082-1.57h.07v1.329h1.627v-8.543h-1.628v1.242zm-2.909 5.955c-1.8 0-2.943-1.312-2.943-2.934 0-1.623 1.143-2.934 2.943-2.934 1.75 0 2.892 1.311 2.892 2.934 0 1.605-1.143 2.934-2.892 2.934zM35.752 17.8c-.398-1.933-2.113-3.348-4.363-3.348-2.719 0-4.537 1.985-4.537 4.505 0 2.52 1.818 4.521 4.537 4.521 2.25 0 3.965-1.45 4.363-3.4h-1.714c-.346 1.088-1.368 1.83-2.632 1.83-1.766 0-2.91-1.33-2.91-2.951 0-1.623 1.144-2.934 2.91-2.934 1.316 0 2.285.776 2.632 1.777h1.714zM44.546 15.936h-.07c-.64-.863-1.679-1.467-3.064-1.484-2.546-.034-4.364 1.847-4.364 4.505 0 2.675 1.853 4.556 4.346 4.521 1.42-.017 2.442-.655 3.083-1.57h.069v1.329h1.627v-8.543h-1.627v1.242zm-2.91 5.955c-1.8 0-2.943-1.312-2.943-2.934 0-1.623 1.143-2.934 2.944-2.934 1.749 0 2.892 1.311 2.892 2.934 0 1.605-1.143 2.934-2.892 2.934zM55.52 16.023h-.07c-.64-.915-1.714-1.554-3.081-1.57-2.494-.035-4.346 1.846-4.346 4.52 0 2.659 1.818 4.54 4.363 4.506 1.35-.018 2.424-.622 3.048-1.485h.086v1.243h1.628V10.81H55.52v5.212zm-2.909 5.885c-1.8 0-2.944-1.312-2.944-2.934s1.143-2.934 2.944-2.934c1.75 0 2.892 1.329 2.892 2.934 0 1.622-1.143 2.934-2.892 2.934zM63.345 14.452c-2.632 0-4.433 2.02-4.433 4.522 0 2.433 1.697 4.505 4.467 4.505 2.009 0 3.62-1.088 4.19-2.9h-1.713c-.381.811-1.299 1.329-2.407 1.329-1.558 0-2.667-1.036-2.788-2.364h7.082c.225-2.848-1.558-5.092-4.398-5.092zm-.035 1.57c1.368 0 2.39.846 2.65 2.072h-5.264c.242-1.208 1.264-2.071 2.614-2.071zM79.413 14.47c-1.316 0-2.32.638-2.875 1.656h-.052c-.502-1-1.437-1.657-2.718-1.657-1.143 0-2.009.604-2.528 1.45h-.07v-1.225h-1.575v8.543h1.645v-4.384c0-1.605.848-2.779 2.13-2.813 1.212-.034 1.922.828 1.922 2.123v5.074h1.645v-4.522c0-1.916 1.142-2.675 2.13-2.675 1.194 0 1.904.828 1.904 2.123v5.074h1.645V17.99c0-2.07-1.177-3.52-3.203-3.52zM88.505 21.873l-2.944-7.18h-1.818l3.913 9.355-.017.034c-.277.708-.589.967-1.35.967h-2.026v1.64h2.025c1.49 0 2.286-.674 2.84-2.123l3.775-9.872h-1.68l-2.718 7.18z"/></g><defs><clipPath id="fclip0_521_0"><path fill="#fff" d="M0 0h93v26.711H0z"/></clipPath></defs></svg><svg fill="none" viewBox="0 0 48 48" id="icon-icecream" xmlns="http://www.w3.org/2000/svg"><circle cx="24" cy="24" r="23" stroke="#2D3440" stroke-width="2"/><path d="M24 8a8.01 8.01 0 00-7.944 7.059H16v15.887h16V15.059h-.056A8.01 8.01 0 0024 8zm6.118 21.064H17.882v-8.678a1.685 1.685 0 001.45.602c1.214 0 2.005-.677 2.005-1.534v-.819a.808.808 0 011.407-.628.81.81 0 01.202.628v3.097a1.76 1.76 0 001.995 1.722 1.75 1.75 0 001.995-1.647v-2.08a1.269 1.269 0 011.778-1.272 1.268 1.268 0 01.754 1.272.387.387 0 000 .085 1.064 1.064 0 00.63.837v8.471l.02-.056zM22.588 38.588a1.412 1.412 0 002.824 0v-6.7h-2.824v6.7z" fill="#2D3440"/></svg><svg fill="none" viewBox="0 0 14 14" id="icon-info" xmlns="http://www.w3.org/2000/svg"><path fill-rule="evenodd" clip-rule="evenodd" d="M7 2.125a4.875 4.875 0 100 9.75 4.875 4.875 0 000-9.75zM.792 7a6.209 6.209 0 1112.417 0A6.209 6.209 0 01.792 7zM7 6.333c.368 0 .667.299.667.667v2.217a.667.667 0 01-1.334 0V7c0-.368.299-.667.667-.667zm0-2.216A.667.667 0 007 5.45h.006a.667.667 0 000-1.333H7z" fill="#2D3440"/></svg><svg fill="none" viewBox="0 0 48 48" id="icon-leaf" xmlns="http://www.w3.org/2000/svg"><circle cx="24" cy="24" r="23" stroke="#2D3440" stroke-width="2"/><path d="M33.324 26.485C32.918 17.41 25.01 8.621 24.657 8.24h-.045l-.109-.124-.117-.077h-.506L23.708 8h-.045l-.163.115-.1.086h-.044c-.353.42-8.261 9.218-8.686 18.284a1.492 1.492 0 000 .2v1.042c.344 9.84 9.038 12.247 9.11 12.266h.226c.075.01.151.01.226 0 .082 0 8.767-2.474 9.101-12.266v-1.041c0-.067-.009-.134-.009-.2zm-16.268-3.353a22.226 22.226 0 006.046 3.926v4.347c-2.214-1.156-5.621-3.21-6.624-5.015.081-1.103.266-2.194.55-3.258h.028zm1.808-4.872a11.106 11.106 0 004.238 2.923v3.764c-2.019-.9-3.859-2.197-5.422-3.821.343-.978.739-1.935 1.184-2.866zm11.487 2.866a17.3 17.3 0 01-5.423 3.821v-3.764a11.112 11.112 0 004.203-2.923 28.79 28.79 0 011.22 2.828v.038zm-5.423-1.968v-7.643a43.22 43.22 0 013.299 4.949 8.28 8.28 0 01-3.317 2.656l.018.038zm0 12.266v-4.366a22.21 22.21 0 006.074-3.907c.276 1.068.452 2.163.524 3.267-.994 1.777-4.402 3.821-6.616 4.968l.018.038zM23.12 19.158a8.207 8.207 0 01-3.316-2.694 43.263 43.263 0 013.298-4.996l.018 7.69zm-6.453 10.25a30.164 30.164 0 006.435 4.099v4.203a10.679 10.679 0 01-4.216-3.285 11.519 11.519 0 01-2.219-5.017zm8.243 8.311v-4.222a29.675 29.675 0 006.435-4.089 11.368 11.368 0 01-2.2 5.036 10.53 10.53 0 01-4.235 3.275z" fill="#2D3440"/></svg><svg fill="none" viewBox="0 0 16 16" id="icon-login" xmlns="http://www.w3.org/2000/svg"><path fill-rule="evenodd" clip-rule="evenodd" d="M9.208.875c0-.368.299-.667.667-.667h3a2.167 2.167 0 012.167 2.167v10.5a2.167 2.167 0 01-2.167 2.167h-3a.667.667 0 010-1.334h3a.834.834 0 00.833-.833v-10.5a.833.833 0 00-.833-.833h-3a.667.667 0 01-.667-.667zM5.654 3.404c.26-.26.682-.26.942 0l3.746 3.745a.664.664 0 010 .952l-3.746 3.745a.667.667 0 11-.942-.942l2.612-2.612H.875a.667.667 0 010-1.334h7.39L5.655 4.346a.667.667 0 010-.942z" fill="#2D3440"/></svg><svg fill="none" viewBox="0 0 7 12" id="icon-next" xmlns="http://www.w3.org/2000/svg"><path fill-rule="evenodd" clip-rule="evenodd" d="M1.135.865a.665.665 0 10-.94.94l4.201 4.201-4.201 4.202a.665.665 0 00.94.94L5.804 6.48a.665.665 0 00.003-.943L1.135.865z" fill="#2D3440"/></svg><svg fill="none" viewBox="0 0 6 12" id="icon-prev" xmlns="http://www.w3.org/2000/svg"><path fill-rule="evenodd" clip-rule="evenodd" d="M5.803 1.805a.665.665 0 10-.94-.94L.195 5.533a.665.665 0 000 .941l4.669 4.668a.665.665 0 10.94-.94L1.605 6.003l4.198-4.198z" fill="#2D3440"/></svg><svg fill="none" viewBox="0 0 16 16" id="icon-search" xmlns="http://www.w3.org/2000/svg"><path fill-rule="evenodd" clip-rule="evenodd" d="M1.913 7.246a5.333 5.333 0 119.17 3.705.655.655 0 00-.132.132 5.333 5.333 0 01-9.038-3.837zm9.552 5.162a6.667 6.667 0 11.943-.943l2.81 2.81a.667.667 0 01-.943.943l-2.81-2.81z" fill="#2D3440"/></svg><svg fill="none" viewBox="0 0 12 6" id="icon-select" xmlns="http://www.w3.org/2000/svg"><path fill-rule="evenodd" clip-rule="evenodd" d="M1.808.195a.667.667 0 00-.943.943l4.66 4.66a.665.665 0 00.955 0l4.661-4.66A.667.667 0 0010.2.195L6.003 4.39 1.808.195z" fill="#2D3440"/></svg><svg fill="none" viewBox="0 0 48 48" id="icon-temp" xmlns="http://www.w3.org/2000/svg"><circle cx="24" cy="24" r="23" stroke="#2D3440" stroke-width="2"/><path d="M27.189 13.07c0-1.345-.492-2.635-1.367-3.585C24.947 8.535 23.76 8 22.522 8c-1.237 0-2.424.534-3.3 1.485-.875.95-1.366 2.24-1.366 3.585v14.754c-1.197 1.327-1.864 3.112-1.856 4.969a7.685 7.685 0 00.782 3.41 7.007 7.007 0 002.176 2.599 6.284 6.284 0 003.05 1.168 6.144 6.144 0 003.196-.543 6.705 6.705 0 002.577-2.124 7.489 7.489 0 001.341-3.198 7.781 7.781 0 00-.214-3.506 7.298 7.298 0 00-1.72-2.976V13.069zm.167 19.723c.01.88-.188 1.747-.575 2.52a5.017 5.017 0 01-1.63 1.897 4.495 4.495 0 01-2.276.795 4.43 4.43 0 01-2.343-.51 4.88 4.88 0 01-1.819-1.685 5.44 5.44 0 01-.832-2.433 5.563 5.563 0 01.363-2.566 5.125 5.125 0 011.467-2.05V13.07c0-.81.296-1.587.824-2.16a2.703 2.703 0 011.987-.894c.746 0 1.46.321 1.988.894.527.573.823 1.35.823 2.16v15.5a5.024 5.024 0 011.49 1.841 5.49 5.49 0 01.533 2.382z" fill="#2D3440"/><path d="M23.534 29.638V13.14c0-.267-.098-.524-.272-.713a.892.892 0 00-.656-.295.892.892 0 00-.656.295 1.053 1.053 0 00-.272.713v16.498a2.85 2.85 0 00-1.473 1.321A3.246 3.246 0 0019.863 33c.11.703.447 1.341.949 1.8.502.46 1.137.713 1.794.713.656 0 1.292-.252 1.794-.712.502-.46.838-1.098.949-1.8a3.246 3.246 0 00-.343-2.042 2.85 2.85 0 00-1.473-1.32zM34.667 11.94H29.1v2.016h5.567v-2.015zM34.667 15.972H29.1v2.016h5.567v-2.016zM34.667 20.003H29.1v2.016h5.567v-2.016zM34.667 24.035H29.1v2.015h5.567v-2.015z" fill="#2D3440"/></svg><svg fill="none" viewBox="0 0 16 16" id="icon-tick" xmlns="http://www.w3.org/2000/svg"><path fill-rule="evenodd" clip-rule="evenodd" d="M1.615 1.615a.962.962 0 01.68-.282h8.96a.667.667 0 100-1.333h-8.96A2.295 2.295 0 000 2.296v11.407A2.297 2.297 0 002.296 16h11.402a2.295 2.295 0 002.295-2.296V8a.667.667 0 00-1.333 0v5.703a.963.963 0 01-.962.963H2.296a.962.962 0 01-.963-.963V2.296c0-.255.102-.5.282-.68zm14.202.325a.667.667 0 10-.968-.917L7.614 8.66 5.782 6.727a.667.667 0 00-.967.917l2.315 2.444a.667.667 0 00.968 0l7.719-8.148z" fill="#2D3440"/></svg><svg fill="none" viewBox="0 0 120 50" id="logo-mobile" xmlns="http://www.w3.org/2000/svg"><path d="M46.24 33.072a3.008 3.008 0 00-1.677.291s-2.34 1.976-13.914-.3c-8.509-1.676-12.93-1.503-12.93-1.503s1.426-9.842 1.037-12.598a.79.79 0 00-.267-.525.775.775 0 00-.552-.191c-.85 0-1.365.33-1.365.787.073 1.86.008 3.724-.195 5.575a4.715 4.715 0 01-1.887 2.368c-.87.558-1.899.81-2.925.718-3.705-.26-4.485-2.952-4.812-4.787-.328-1.834-.515-6.96.46-9.054 0 0 5.584.197 9.093-2.827 3.51-3.023 3.292-5.637 1.63-6.755-1.66-1.118-5.552-.922-8.54 1.834a15.253 15.253 0 00-3.962 5.512s-4.39-.945-3.384-5.575c1.068-4.834 7.612-4.267 7.612-4.267 1.364.267 1.427.393 1.88-.063.452-.457.78-1.638-1.366-1.709-2.144-.07-8.579 1-9.811 5.315-1.318 4.59 1.115 7.873 4.383 8.385 0 0-1.786 7.952.421 11.889a6.98 6.98 0 002.77 2.966 6.888 6.888 0 003.938.908c1.287 0 3.564-.725 4.211-1.772 0 0-.304 2.819-.561 3.842 0 0-5.413-.07-7.105.788-2.878 1.535-2.278 5.133-1.17 6.409.936 1.086 3.751 1.677 5.787.708a7.77 7.77 0 002.927-2.476 7.87 7.87 0 001.401-3.586c3.293-.171 6.592.19 9.773 1.07 4.812 1.45 11.511 2.803 13.523 2.803 2.013 0 6.24-.582 6.497-2.275.14-1.118-.273-1.7-.92-1.905zM12.368 6.759s2.558-1.969 3.783-.74a1.701 1.701 0 01.07 2.22c-.515.677-1.872 2.819-8.314 3.881 0 0 2.028-3.59 4.461-5.361zm.21 30.635s-3.532 1.945-3.899-.693a2.502 2.502 0 01.14-1.65 2.47 2.47 0 011.139-1.192c.616-.307 1.458-.693 5.132-.559a5.01 5.01 0 01-.732 2.374 4.95 4.95 0 01-1.78 1.72z" fill="#2D3440"/><path d="M57.385 18.687v5.425a4.453 4.453 0 01-.67 1.992c-.24.435-.552.827-.921 1.157-.414.362-.686-.449-.842-.787-1.085-2.291-.562-5.362-.14-7.764.194-1.149-2.114-.85-2.294.174a23.377 23.377 0 00-.429 6.228 1.45 1.45 0 00-1.045.574c-.398.859-1.56 3.709-2.987 2.567-1.03-.787-1.139-2.945-1.248-4.15-.124-1.669.094-3.347.64-4.928-.047.134.889-2.228 1.302-1.346a2.885 2.885 0 01-.476 2.464c-1.224.93.679 1.315 1.42.748 1.404-1.063 2.34-4.496-.055-4.905-2.706-.457-4.242 2.299-4.812 4.488a14.403 14.403 0 00-.39 3.842c-.374.661-1.638 2.787-2.379 3.15-.873.456-.857-.182-.826-.591.03-.41.42-4.055.632-6.511a4.582 4.582 0 00-.39-2.874c-.336-.685-3.12-2.22-5.57.661a9.413 9.413 0 00-2.401 5.512c-.164.33-.343.684-.554 1.07-1.17 2.166-2.644 3.079-3.167 1.575a12.107 12.107 0 01-.584-4.874 30.465 30.465 0 003.946-9.251c1.17-5.244.951-7.85.32-8.29-.632-.442-3.315-1.528-4.93 4.92a42.404 42.404 0 00-1.24 14.078c-.249.535-.561 1.18-.959 1.913-1.17 2.165-2.636 3.079-3.166 1.575a12.107 12.107 0 01-.554-4.874 30.465 30.465 0 003.947-9.251c1.208-5.315.967-7.92.335-8.362-.632-.44-3.315-1.527-4.921 4.921-1.607 6.449-1.927 13.48-.39 18.204 0 0 .842 2.66 2.417 2.464 1.303-.165 2.855-1.457 3.767-3.866.104.474.231.941.383 1.402 0 0 .842 2.66 2.417 2.464 1.069-.134 2.34-1.04 3.23-2.693.553 1.441 1.746 2.63 3.283 2.362 2.082-.378 2.51-1.52 2.51-1.52s-.038 1.875 1.296 1.875c1.185 0 2.129-.701 3.065-2.488.32-.607.507-.96.608-1.166.273 1.693.967 3.197 2.34 3.803 2.34 1.024 4.383-.921 5.584-2.842a3.4 3.4 0 00.736 1.243 3.36 3.36 0 001.183.82 2.898 2.898 0 002.948-.732v2.771a1.99 1.99 0 00-1.21.33 9.216 9.216 0 00-2.69 3.717 9.301 9.301 0 00-.577 4.567c.033.418.168.822.393 1.175.225.353.533.644.897.848a2.501 2.501 0 002.383.032c2.418-1.063 2.785-4.725 2.987-6.96.492-5.378.11-10.976.11-16.37 0-.992-2.262-.527-2.262.284zM23.59 9.869c.538-2.087 1.037-2.921 1.56-2.921.522 0 .725.559.359 2.362a46.483 46.483 0 01-3.19 10.038s.733-7.385 1.271-9.48zm6.567 0c.538-2.087 1.037-2.921 1.52-2.921.484 0 .734.559.367 2.362-.366 1.803-1.56 6.787-3.19 10.038 0 0 .78-7.385 1.303-9.48zm10.03 9.818c-.063.456-.36 3.377-.78 4.952-.421 1.575-.71 2.134-1.974 2.677-1.263.544-1.902-1.118-1.902-1.118-.897-2.52.304-4.724 1.302-6.236.998-1.511 2.004-1.645 2.581-1.574a1.056 1.056 0 01.653.488 1.078 1.078 0 01.12.81zm17.134 14.172a14.36 14.36 0 01-1.232 6.15c-.546.11-.78-.095-.967-.977a8.528 8.528 0 010-2.559 7.106 7.106 0 012.168-4.055c.04.496.04.977.031 1.441zM71.985 16.459a8.399 8.399 0 01-2.695-1.913 8.492 8.492 0 01-1.759-2.811c-.998-3.008 2.278-5.228 4.89-5.094 2.613.133 4.01 2.85 3.9 5.283-.047.858-.585 2.795-1.638 1.787a5.024 5.024 0 01-1.216-2.858c-.156-.953-2.418-.386-2.262.614.452 2.882 3.525 6.055 6.161 3.04.54-.684.919-1.48 1.11-2.332a5.841 5.841 0 00-.008-2.587 5.809 5.809 0 00-1.123-2.325 5.74 5.74 0 00-2.014-1.599 7.916 7.916 0 00-5.507-.107 8.003 8.003 0 00-4.266 3.516c-2.129 3.82 2.145 7.551 5.171 8.913 4.86 2.622 5.038 11.062-1.42 11.117a6.464 6.464 0 01-3.683-1.26 6.562 6.562 0 01-2.314-3.157c-.444-1.322-.218-5.944 1.56-6.298 1.412-.276 1.03-1.575-.35-1.33-2.894.566-3.963 4.337-3.682 6.975.452 4.204 4.352 6.559 8.29 6.527a7.418 7.418 0 004.82-1.602 7.545 7.545 0 002.691-4.342 7.421 7.421 0 00-.868-4.928 7.31 7.31 0 00-3.788-3.23z" fill="#2D3440"/><path d="M86.476 28.97c-2.223-1.229-.952-5.96-.616-7.78.218-1.173 1.209-2.983-.382-3.385-1.864-.457-4.08 1.33-5.678 3.04-.002-1.972.142-3.94.429-5.89a12.214 12.214 0 005.6-5.819c1.013-2.047 1.513-6.298-1.92-5.054-3.119 1.102-4.187 4.724-5.162 7.629a23.796 23.796 0 00-.85 3.44 9.795 9.795 0 01-.952.347c-1.294.41-1.123 1.11.187.7l.632-.204c-.624 4.417-.203 9.047.195 13.385 0 .425 2.34 0 2.254-.614-.172-1.937-.32-3.874-.382-5.795.188-.055.358-.162.491-.307a17.654 17.654 0 012.402-2.496c.234-.213.476-.41.718-.598l.359-.268c.522-.417.624-.425.296 0a21.79 21.79 0 01-.483 2.228c-.43 2.362-1.662 7 1.044 8.488.585.299 2.691-.583 1.818-1.047zM81.414 9.987c.242-.701.562-1.394.858-2.071.367-.85 1.35-3.756 2.059-2.362.57 1.11-.328 2.929-.725 3.992a9.354 9.354 0 01-3.12 4.173c.227-1.263.538-2.51.928-3.732z" fill="#2D3440"/><path d="M94.86 23.45c0-2.59-.289-5.913-3.354-6.188-3.361-.307-4.68 3.244-4.726 5.897a.469.469 0 00.273.449c0 2.48.593 5.716 3.517 5.66 3.26-.046 4.29-2.92 4.29-5.818zm-3.9 4.315c-1.903-.787-1.731-4.102-1.606-5.7a.429.429 0 00-.188-.418c.234-1.574.843-3.936 2.231-2.763 1.107.96 1.13 3.267 1.185 4.598.047.929-.07 4.866-1.614 4.283h-.008zM119.427 37.662c-.873-2.268-2.792-3.15-4.905-3.244a8.893 8.893 0 00-.882-1.638c-3.049-4.558-10.287-3.936-15.192-1.574 0-.717-.07-1.433-.102-2.15a5.653 5.653 0 002.845-.51 5.714 5.714 0 002.232-1.852c1.303-1.881 1.116-5.22.601-7.33-.484-1.984-2.402-1.63-3.845-.968a5.736 5.736 0 00-1.45.992c0-.528.085-1.063.124-1.575.086-1.212-2.215-.905-2.293.165-.359 4.874-.234 9.732-.343 14.598a11.602 11.602 0 00-3.21 4.259 11.71 11.71 0 00-.978 5.26c0 1.787 1.505 3.149 3.12 1.873 2.253-1.747 2.94-5.22 3.252-7.873.127-1.184.17-2.376.124-3.567a10.845 10.845 0 015.916-1.805 10.843 10.843 0 015.939 1.727 5.45 5.45 0 011.771 2.125 14.182 14.182 0 00-3.604 1.166c-1.333.645-3.314 2.173-3.221 3.881-.015.541.154 1.07.479 1.5.325.43.787.735 1.307.862a.7.7 0 00.227.071c4.788.788 8.352-2.07 7.666-6.094 2.34 1.284 3.206 4.26 2.379 6.819-1.864 5.747-9.039 7.03-13.22 3.188-.452-.409-2.488.457-2.129.788 6.037 5.566 21.073.417 17.392-9.094zm-23.35-1.394a12.333 12.333 0 01-.89 4.047c-.194.433-.405.85-.631 1.26 0 0-.203.047-.242-.567a11.416 11.416 0 011.825-6.212c-.016.488-.031.984-.063 1.472zm2.44-14.062a.625.625 0 00.118-.133c.418-.713.915-1.376 1.482-1.977a6.151 6.151 0 011.411-1.197c.25.127.507.788.601 1.677.241 2.19.343 7.953-3.073 7.41a1.858 1.858 0 00-.78.133c-.008-2 .101-3.952.242-5.913zm10.202 18.692h-.047c-1.31-.315-1.17-1.575-.998-2.425.382-1.992 2.784-3.063 4.765-3.15 1.006 2.835.234 6.228-3.72 5.575z" fill="#2D3440"/></svg></svg>